<svg width="617" height="1020" xmlns="http://www.w3.org/2000/svg" version="1.1"><g transform="translate(0,10)"><g><path class="link" d="M311,469.53846153846155C461.5,469.53846153846155 461.5,459.53846153846155 612,459.53846153846155" style="stroke-width: 299.077; fill: none; stroke: rgb(191, 105, 113); stroke-opacity: 0.4;"><title>54</title></path><path class="link" d="M311,646.7692307692308C461.5,646.7692307692308 461.5,646.7692307692308 612,646.7692307692308" style="stroke-width: 55.3846; fill: none; stroke: rgb(191, 105, 113); stroke-opacity: 0.4;"><title>10</title></path><path class="link" d="M5,546.6153846153845C155.5,546.6153846153845 155.5,516.6153846153846 306,516.6153846153846" style="stroke-width: 5.53846; fill: none; stroke: rgb(105, 183, 191); stroke-opacity: 0.4;"><title>1</title></path><path class="link" d="M5,49.38461538461515C155.5,49.38461538461515 155.5,339.3846153846154 306,339.3846153846154" style="stroke-width: 5.53846; fill: none; stroke: rgb(191, 128, 105); stroke-opacity: 0.4;"><title>1</title></path><path class="link" d="M5,64.92307692307669C155.5,64.92307692307669 155.5,344.9230769230769 306,344.9230769230769" style="stroke-width: 5.53846; fill: none; stroke: rgb(191, 136, 105); stroke-opacity: 0.4;"><title>1</title></path><path class="link" d="M5,80.46153846153824C155.5,80.46153846153824 155.5,350.46153846153845 306,350.46153846153845" style="stroke-width: 5.53846; fill: none; stroke: rgb(191, 144, 105); stroke-opacity: 0.4;"><title>1</title></path><path class="link" d="M5,95.99999999999977C155.5,95.99999999999977 155.5,356 306,356" style="stroke-width: 5.53846; fill: none; stroke: rgb(191, 152, 105); stroke-opacity: 0.4;"><title>1</title></path><path class="link" d="M5,111.5384615384613C155.5,111.5384615384613 155.5,361.53846153846155 306,361.53846153846155" style="stroke-width: 5.53846; fill: none; stroke: rgb(191, 160, 105); stroke-opacity: 0.4;"><title>1</title></path><path class="link" d="M5,127.07692307692284C155.5,127.07692307692284 155.5,367.0769230769231 306,367.0769230769231" style="stroke-width: 5.53846; fill: none; stroke: rgb(191, 167, 105); stroke-opacity: 0.4;"><title>1</title></path><path class="link" d="M5,142.6153846153844C155.5,142.6153846153844 155.5,372.61538461538464 306,372.61538461538464" style="stroke-width: 5.53846; fill: none; stroke: rgb(191, 175, 105); stroke-opacity: 0.4;"><title>1</title></path><path class="link" d="M5,158.15384615384593C155.5,158.15384615384593 155.5,378.1538461538462 306,378.1538461538462" style="stroke-width: 5.53846; fill: none; stroke: rgb(191, 183, 105); stroke-opacity: 0.4;"><title>1</title></path><path class="link" d="M5,173.69230769230748C155.5,173.69230769230748 155.5,383.6923076923077 306,383.6923076923077" style="stroke-width: 5.53846; fill: none; stroke: rgb(191, 191, 105); stroke-opacity: 0.4;"><title>1</title></path><path class="link" d="M5,189.23076923076903C155.5,189.23076923076903 155.5,389.2307692307692 306,389.2307692307692" style="stroke-width: 5.53846; fill: none; stroke: rgb(183, 191, 105); stroke-opacity: 0.4;"><title>1</title></path><path class="link" d="M5,204.76923076923057C155.5,204.76923076923057 155.5,394.7692307692308 306,394.7692307692308" style="stroke-width: 5.53846; fill: none; stroke: rgb(175, 191, 105); stroke-opacity: 0.4;"><title>1</title></path><path class="link" d="M5,235.84615384615367C155.5,235.84615384615367 155.5,405.84615384615387 306,405.84615384615387" style="stroke-width: 5.53846; fill: none; stroke: rgb(167, 191, 105); stroke-opacity: 0.4;"><title>1</title></path><path class="link" d="M5,220.30769230769212C155.5,220.30769230769212 155.5,400.3076923076923 306,400.3076923076923" style="stroke-width: 5.53846; fill: none; stroke: rgb(160, 191, 105); stroke-opacity: 0.4;"><title>1</title></path><path class="link" d="M5,251.38461538461522C155.5,251.38461538461522 155.5,411.38461538461536 306,411.38461538461536" style="stroke-width: 5.53846; fill: none; stroke: rgb(152, 191, 105); stroke-opacity: 0.4;"><title>1</title></path><path class="link" d="M5,266.92307692307674C155.5,266.92307692307674 155.5,416.9230769230769 306,416.9230769230769" style="stroke-width: 5.53846; fill: none; stroke: rgb(144, 191, 105); stroke-opacity: 0.4;"><title>1</title></path><path class="link" d="M5,282.4615384615383C155.5,282.4615384615383 155.5,422.46153846153845 306,422.46153846153845" style="stroke-width: 5.53846; fill: none; stroke: rgb(136, 191, 105); stroke-opacity: 0.4;"><title>1</title></path><path class="link" d="M5,297.99999999999983C155.5,297.99999999999983 155.5,427.99999999999994 306,427.99999999999994" style="stroke-width: 5.53846; fill: none; stroke: rgb(128, 191, 105); stroke-opacity: 0.4;"><title>1</title></path><path class="link" d="M5,313.5384615384614C155.5,313.5384615384614 155.5,433.5384615384615 306,433.5384615384615" style="stroke-width: 5.53846; fill: none; stroke: rgb(121, 191, 105); stroke-opacity: 0.4;"><title>1</title></path><path class="link" d="M5,329.0769230769229C155.5,329.0769230769229 155.5,439.07692307692304 306,439.07692307692304" style="stroke-width: 5.53846; fill: none; stroke: rgb(113, 191, 105); stroke-opacity: 0.4;"><title>1</title></path><path class="link" d="M5,344.61538461538447C155.5,344.61538461538447 155.5,444.6153846153846 306,444.6153846153846" style="stroke-width: 5.53846; fill: none; stroke: rgb(105, 191, 105); stroke-opacity: 0.4;"><title>1</title></path><path class="link" d="M5,360.153846153846C155.5,360.153846153846 155.5,450.15384615384613 306,450.15384615384613" style="stroke-width: 5.53846; fill: none; stroke: rgb(105, 191, 113); stroke-opacity: 0.4;"><title>1</title></path><path class="link" d="M5,375.69230769230757C155.5,375.69230769230757 155.5,455.6923076923077 306,455.6923076923077" style="stroke-width: 5.53846; fill: none; stroke: rgb(105, 191, 121); stroke-opacity: 0.4;"><title>1</title></path><path class="link" d="M5,406.76923076923066C155.5,406.76923076923066 155.5,466.7692307692308 306,466.7692307692308" style="stroke-width: 5.53846; fill: none; stroke: rgb(105, 191, 128); stroke-opacity: 0.4;"><title>1</title></path><path class="link" d="M5,422.3076923076922C155.5,422.3076923076922 155.5,472.3076923076923 306,472.3076923076923" style="stroke-width: 5.53846; fill: none; stroke: rgb(105, 191, 136); stroke-opacity: 0.4;"><title>1</title></path><path class="link" d="M5,437.84615384615375C155.5,437.84615384615375 155.5,477.84615384615387 306,477.84615384615387" style="stroke-width: 5.53846; fill: none; stroke: rgb(105, 191, 144); stroke-opacity: 0.4;"><title>1</title></path><path class="link" d="M5,453.3846153846153C155.5,453.3846153846153 155.5,483.3846153846154 306,483.3846153846154" style="stroke-width: 5.53846; fill: none; stroke: rgb(105, 191, 152); stroke-opacity: 0.4;"><title>1</title></path><path class="link" d="M5,468.92307692307685C155.5,468.92307692307685 155.5,488.92307692307696 306,488.92307692307696" style="stroke-width: 5.53846; fill: none; stroke: rgb(105, 191, 160); stroke-opacity: 0.4;"><title>1</title></path><path class="link" d="M5,484.4615384615384C155.5,484.4615384615384 155.5,494.4615384615385 306,494.4615384615385" style="stroke-width: 5.53846; fill: none; stroke: rgb(105, 191, 167); stroke-opacity: 0.4;"><title>1</title></path><path class="link" d="M5,2.769230769230542C155.5,2.769230769230542 155.5,322.7692307692308 306,322.7692307692308" style="stroke-width: 5.53846; fill: none; stroke: rgb(105, 191, 175); stroke-opacity: 0.4;"><title>1</title></path><path class="link" d="M5,515.5384615384614C155.5,515.5384615384614 155.5,505.5384615384616 306,505.5384615384616" style="stroke-width: 5.53846; fill: none; stroke: rgb(105, 191, 183); stroke-opacity: 0.4;"><title>1</title></path><path class="link" d="M5,531.076923076923C155.5,531.076923076923 155.5,511.07692307692315 306,511.07692307692315" style="stroke-width: 5.53846; fill: none; stroke: rgb(105, 191, 191); stroke-opacity: 0.4;"><title>1</title></path><path class="link" d="M5,499.99999999999994C155.5,499.99999999999994 155.5,500.00000000000006 306,500.00000000000006" style="stroke-width: 5.53846; fill: none; stroke: rgb(191, 113, 105); stroke-opacity: 0.4;"><title>1</title></path><path class="link" d="M5,562.1538461538461C155.5,562.1538461538461 155.5,522.1538461538462 306,522.1538461538462" style="stroke-width: 5.53846; fill: none; stroke: rgb(105, 175, 191); stroke-opacity: 0.4;"><title>1</title></path><path class="link" d="M5,577.6923076923076C155.5,577.6923076923076 155.5,527.6923076923077 306,527.6923076923077" style="stroke-width: 5.53846; fill: none; stroke: rgb(105, 167, 191); stroke-opacity: 0.4;"><title>1</title></path><path class="link" d="M5,593.2307692307692C155.5,593.2307692307692 155.5,533.2307692307693 306,533.2307692307693" style="stroke-width: 5.53846; fill: none; stroke: rgb(105, 160, 191); stroke-opacity: 0.4;"><title>1</title></path><path class="link" d="M5,608.7692307692307C155.5,608.7692307692307 155.5,538.7692307692308 306,538.7692307692308" style="stroke-width: 5.53846; fill: none; stroke: rgb(105, 152, 191); stroke-opacity: 0.4;"><title>1</title></path><path class="link" d="M5,624.3076923076923C155.5,624.3076923076923 155.5,544.3076923076924 306,544.3076923076924" style="stroke-width: 5.53846; fill: none; stroke: rgb(105, 144, 191); stroke-opacity: 0.4;"><title>1</title></path><path class="link" d="M5,639.8461538461538C155.5,639.8461538461538 155.5,549.8461538461539 306,549.8461538461539" style="stroke-width: 5.53846; fill: none; stroke: rgb(105, 136, 191); stroke-opacity: 0.4;"><title>1</title></path><path class="link" d="M5,655.3846153846154C155.5,655.3846153846154 155.5,555.3846153846155 306,555.3846153846155" style="stroke-width: 5.53846; fill: none; stroke: rgb(105, 128, 191); stroke-opacity: 0.4;"><title>1</title></path><path class="link" d="M5,670.9230769230769C155.5,670.9230769230769 155.5,560.923076923077 306,560.923076923077" style="stroke-width: 5.53846; fill: none; stroke: rgb(105, 121, 191); stroke-opacity: 0.4;"><title>1</title></path><path class="link" d="M5,686.4615384615385C155.5,686.4615384615385 155.5,566.4615384615386 306,566.4615384615386" style="stroke-width: 5.53846; fill: none; stroke: rgb(105, 113, 191); stroke-opacity: 0.4;"><title>1</title></path><path class="link" d="M5,702C155.5,702 155.5,572.0000000000001 306,572.0000000000001" style="stroke-width: 5.53846; fill: none; stroke: rgb(105, 105, 191); stroke-opacity: 0.4;"><title>1</title></path><path class="link" d="M5,717.5384615384615C155.5,717.5384615384615 155.5,577.5384615384617 306,577.5384615384617" style="stroke-width: 5.53846; fill: none; stroke: rgb(113, 105, 191); stroke-opacity: 0.4;"><title>1</title></path><path class="link" d="M5,733.0769230769231C155.5,733.0769230769231 155.5,583.0769230769231 306,583.0769230769231" style="stroke-width: 5.53846; fill: none; stroke: rgb(121, 105, 191); stroke-opacity: 0.4;"><title>1</title></path><path class="link" d="M5,748.6153846153846C155.5,748.6153846153846 155.5,588.6153846153848 306,588.6153846153848" style="stroke-width: 5.53846; fill: none; stroke: rgb(128, 105, 191); stroke-opacity: 0.4;"><title>1</title></path><path class="link" d="M5,764.1538461538462C155.5,764.1538461538462 155.5,594.1538461538462 306,594.1538461538462" style="stroke-width: 5.53846; fill: none; stroke: rgb(136, 105, 191); stroke-opacity: 0.4;"><title>1</title></path><path class="link" d="M5,779.6923076923077C155.5,779.6923076923077 155.5,599.6923076923078 306,599.6923076923078" style="stroke-width: 5.53846; fill: none; stroke: rgb(144, 105, 191); stroke-opacity: 0.4;"><title>1</title></path><path class="link" d="M5,795.2307692307693C155.5,795.2307692307693 155.5,605.2307692307693 306,605.2307692307693" style="stroke-width: 5.53846; fill: none; stroke: rgb(152, 105, 191); stroke-opacity: 0.4;"><title>1</title></path><path class="link" d="M5,810.7692307692308C155.5,810.7692307692308 155.5,610.769230769231 306,610.769230769231" style="stroke-width: 5.53846; fill: none; stroke: rgb(160, 105, 191); stroke-opacity: 0.4;"><title>1</title></path><path class="link" d="M5,826.3076923076924C155.5,826.3076923076924 155.5,616.3076923076924 306,616.3076923076924" style="stroke-width: 5.53846; fill: none; stroke: rgb(167, 105, 191); stroke-opacity: 0.4;"><title>1</title></path><path class="link" d="M5,841.8461538461539C155.5,841.8461538461539 155.5,621.846153846154 306,621.846153846154" style="stroke-width: 5.53846; fill: none; stroke: rgb(175, 105, 191); stroke-opacity: 0.4;"><title>1</title></path><path class="link" d="M5,872.923076923077C155.5,872.923076923077 155.5,632.9230769230771 306,632.9230769230771" style="stroke-width: 5.53846; fill: none; stroke: rgb(183, 105, 191); stroke-opacity: 0.4;"><title>1</title></path><path class="link" d="M5,888.4615384615386C155.5,888.4615384615386 155.5,638.4615384615386 306,638.4615384615386" style="stroke-width: 5.53846; fill: none; stroke: rgb(191, 105, 191); stroke-opacity: 0.4;"><title>1</title></path><path class="link" d="M5,904.0000000000001C155.5,904.0000000000001 155.5,644.0000000000002 306,644.0000000000002" style="stroke-width: 5.53846; fill: none; stroke: rgb(191, 105, 183); stroke-opacity: 0.4;"><title>1</title></path><path class="link" d="M5,919.5384615384617C155.5,919.5384615384617 155.5,649.5384615384617 306,649.5384615384617" style="stroke-width: 5.53846; fill: none; stroke: rgb(191, 105, 175); stroke-opacity: 0.4;"><title>1</title></path><path class="link" d="M5,935.0769230769232C155.5,935.0769230769232 155.5,655.0769230769233 306,655.0769230769233" style="stroke-width: 5.53846; fill: none; stroke: rgb(191, 105, 167); stroke-opacity: 0.4;"><title>1</title></path><path class="link" d="M5,950.6153846153848C155.5,950.6153846153848 155.5,660.6153846153848 306,660.6153846153848" style="stroke-width: 5.53846; fill: none; stroke: rgb(191, 105, 160); stroke-opacity: 0.4;"><title>1</title></path><path class="link" d="M5,966.1538461538463C155.5,966.1538461538463 155.5,666.1538461538464 306,666.1538461538464" style="stroke-width: 5.53846; fill: none; stroke: rgb(191, 105, 152); stroke-opacity: 0.4;"><title>1</title></path><path class="link" d="M5,981.6923076923078C155.5,981.6923076923078 155.5,671.6923076923078 306,671.6923076923078" style="stroke-width: 5.53846; fill: none; stroke: rgb(191, 105, 144); stroke-opacity: 0.4;"><title>1</title></path><path class="link" d="M5,997.2307692307694C155.5,997.2307692307694 155.5,677.2307692307695 306,677.2307692307695" style="stroke-width: 5.53846; fill: none; stroke: rgb(191, 105, 136); stroke-opacity: 0.4;"><title>1</title></path><path class="link" d="M5,391.2307692307691C155.5,391.2307692307691 155.5,461.2307692307692 306,461.2307692307692" style="stroke-width: 5.53846; fill: none; stroke: rgb(191, 105, 128); stroke-opacity: 0.4;"><title>1</title></path><path class="link" d="M5,857.3846153846155C155.5,857.3846153846155 155.5,627.3846153846155 306,627.3846153846155" style="stroke-width: 5.53846; fill: none; stroke: rgb(191, 105, 121); stroke-opacity: 0.4;"><title>1</title></path><path class="link" d="M5,18.30769230769208C155.5,18.30769230769208 155.5,328.3076923076923 306,328.3076923076923" style="stroke-width: 5.53846; fill: none; stroke: rgb(191, 105, 105); stroke-opacity: 0.4;"><title>1</title></path><path class="link" d="M5,33.84615384615362C155.5,33.84615384615362 155.5,333.84615384615387 306,333.84615384615387" style="stroke-width: 5.53846; fill: none; stroke: rgb(191, 121, 105); stroke-opacity: 0.4;"><title>1</title></path><path class="link" d="M311,677.2307692307692C461.5,677.2307692307692 461.5,687.2307692307692 612,687.2307692307692" style="stroke-width: 5.53846; fill: none; stroke: rgb(191, 105, 113); stroke-opacity: 0.4;"><title>1</title></path></g><g><g class="node" transform="translate(306,320)"><rect height="360" width="5"><title>Animalia
65</title></rect><text x="11" y="180" dy=".35em" text-anchor="start" style="font-size: 11px; font-family: Arial, Helvetica; pointer-events: none;">Animalia</text></g><g class="node" transform="translate(0,15.538461538461311)"><rect height="5.538461538461538" width="5"><title>African civet
1</title></rect><text x="11" y="2.769230769230769" dy=".35em" text-anchor="start" style="font-size: 11px; font-family: Arial, Helvetica; pointer-events: none;">African civet</text></g><g class="node" transform="translate(0,497.23076923076917)"><rect height="5.538461538461538" width="5"><title>Alligator
1</title></rect><text x="11" y="2.769230769230769" dy=".35em" text-anchor="start" style="font-size: 11px; font-family: Arial, Helvetica; pointer-events: none;">Alligator</text></g><g class="node" transform="translate(0,31.07692307692285)"><rect height="5.538461538461538" width="5"><title>Alligator snapping turtle
1</title></rect><text x="11" y="2.769230769230769" dy=".35em" text-anchor="start" style="font-size: 11px; font-family: Arial, Helvetica; pointer-events: none;">Alligator snapping turtle</text></g><g class="node" transform="translate(0,46.615384615384386)"><rect height="5.538461538461538" width="5"><title>American bison
1</title></rect><text x="11" y="2.769230769230769" dy=".35em" text-anchor="start" style="font-size: 11px; font-family: Arial, Helvetica; pointer-events: none;">American bison</text></g><g class="node" transform="translate(0,62.153846153845926)"><rect height="5.538461538461538" width="5"><title>Arctic hare
1</title></rect><text x="11" y="2.769230769230769" dy=".35em" text-anchor="start" style="font-size: 11px; font-family: Arial, Helvetica; pointer-events: none;">Arctic hare</text></g><g class="node" transform="translate(0,77.69230769230747)"><rect height="5.538461538461538" width="5"><title>Black Rat
1</title></rect><text x="11" y="2.769230769230769" dy=".35em" text-anchor="start" style="font-size: 11px; font-family: Arial, Helvetica; pointer-events: none;">Black Rat</text></g><g class="node" transform="translate(0,93.230769230769)"><rect height="5.538461538461538" width="5"><title>Black Woodpecker
1</title></rect><text x="11" y="2.769230769230769" dy=".35em" text-anchor="start" style="font-size: 11px; font-family: Arial, Helvetica; pointer-events: none;">Black Woodpecker</text></g><g class="node" transform="translate(0,108.76923076923053)"><rect height="5.538461538461538" width="5"><title>Blowfish
1</title></rect><text x="11" y="2.769230769230769" dy=".35em" text-anchor="start" style="font-size: 11px; font-family: Arial, Helvetica; pointer-events: none;">Blowfish</text></g><g class="node" transform="translate(0,124.30769230769207)"><rect height="5.538461538461538" width="5"><title>Boa constrictor
1</title></rect><text x="11" y="2.769230769230769" dy=".35em" text-anchor="start" style="font-size: 11px; font-family: Arial, Helvetica; pointer-events: none;">Boa constrictor</text></g><g class="node" transform="translate(0,139.8461538461536)"><rect height="5.538461538461538" width="5"><title>Bowhead Whale
1</title></rect><text x="11" y="2.769230769230769" dy=".35em" text-anchor="start" style="font-size: 11px; font-family: Arial, Helvetica; pointer-events: none;">Bowhead Whale</text></g><g class="node" transform="translate(0,155.38461538461516)"><rect height="5.538461538461538" width="5"><title>Brown Bear
1</title></rect><text x="11" y="2.769230769230769" dy=".35em" text-anchor="start" style="font-size: 11px; font-family: Arial, Helvetica; pointer-events: none;">Brown Bear</text></g><g class="node" transform="translate(0,170.9230769230767)"><rect height="5.538461538461538" width="5"><title>Brown-throated sloth
1</title></rect><text x="11" y="2.769230769230769" dy=".35em" text-anchor="start" style="font-size: 11px; font-family: Arial, Helvetica; pointer-events: none;">Brown-throated sloth</text></g><g class="node" transform="translate(0,186.46153846153825)"><rect height="5.538461538461538" width="5"><title>Chans megastick
1</title></rect><text x="11" y="2.769230769230769" dy=".35em" text-anchor="start" style="font-size: 11px; font-family: Arial, Helvetica; pointer-events: none;">Chans megastick</text></g><g class="node" transform="translate(0,201.9999999999998)"><rect height="5.538461538461538" width="5"><title>Cockatoo
1</title></rect><text x="11" y="2.769230769230769" dy=".35em" text-anchor="start" style="font-size: 11px; font-family: Arial, Helvetica; pointer-events: none;">Cockatoo</text></g><g class="node" transform="translate(0,217.53846153846135)"><rect height="5.538461538461538" width="5"><title>Common bottlenose dolphin
1</title></rect><text x="11" y="2.769230769230769" dy=".35em" text-anchor="start" style="font-size: 11px; font-family: Arial, Helvetica; pointer-events: none;">Common bottlenose dolphin</text></g><g class="node" transform="translate(0,233.0769230769229)"><rect height="5.538461538461538" width="5"><title>Common Magpie
1</title></rect><text x="11" y="2.769230769230769" dy=".35em" text-anchor="start" style="font-size: 11px; font-family: Arial, Helvetica; pointer-events: none;">Common Magpie</text></g><g class="node" transform="translate(0,248.61538461538444)"><rect height="5.538461538461538" width="5"><title>Cynoscion nebulosus
1</title></rect><text x="11" y="2.769230769230769" dy=".35em" text-anchor="start" style="font-size: 11px; font-family: Arial, Helvetica; pointer-events: none;">Cynoscion nebulosus</text></g><g class="node" transform="translate(0,264.15384615384596)"><rect height="5.538461538461538" width="5"><title>Dodo
1</title></rect><text x="11" y="2.769230769230769" dy=".35em" text-anchor="start" style="font-size: 11px; font-family: Arial, Helvetica; pointer-events: none;">Dodo</text></g><g class="node" transform="translate(0,279.6923076923075)"><rect height="5.538461538461538" width="5"><title>Dog
1</title></rect><text x="11" y="2.769230769230769" dy=".35em" text-anchor="start" style="font-size: 11px; font-family: Arial, Helvetica; pointer-events: none;">Dog</text></g><g class="node" transform="translate(0,295.23076923076906)"><rect height="5.538461538461538" width="5"><title>Donkey
1</title></rect><text x="11" y="2.769230769230769" dy=".35em" text-anchor="start" style="font-size: 11px; font-family: Arial, Helvetica; pointer-events: none;">Donkey</text></g><g class="node" transform="translate(0,310.7692307692306)"><rect height="5.538461538461538" width="5"><title>Dugong
1</title></rect><text x="11" y="2.769230769230769" dy=".35em" text-anchor="start" style="font-size: 11px; font-family: Arial, Helvetica; pointer-events: none;">Dugong</text></g><g class="node" transform="translate(0,326.30769230769215)"><rect height="5.538461538461538" width="5"><title>Eastern grey kangaroo
1</title></rect><text x="11" y="2.769230769230769" dy=".35em" text-anchor="start" style="font-size: 11px; font-family: Arial, Helvetica; pointer-events: none;">Eastern grey kangaroo</text></g><g class="node" transform="translate(0,341.8461538461537)"><rect height="5.538461538461538" width="5"><title>European rabbit
1</title></rect><text x="11" y="2.769230769230769" dy=".35em" text-anchor="start" style="font-size: 11px; font-family: Arial, Helvetica; pointer-events: none;">European rabbit</text></g><g class="node" transform="translate(0,357.38461538461524)"><rect height="5.538461538461538" width="5"><title>European wasp
1</title></rect><text x="11" y="2.769230769230769" dy=".35em" text-anchor="start" style="font-size: 11px; font-family: Arial, Helvetica; pointer-events: none;">European wasp</text></g><g class="node" transform="translate(0,372.9230769230768)"><rect height="5.538461538461538" width="5"><title>Firefly
1</title></rect><text x="11" y="2.769230769230769" dy=".35em" text-anchor="start" style="font-size: 11px; font-family: Arial, Helvetica; pointer-events: none;">Firefly</text></g><g class="node" transform="translate(0,388.46153846153834)"><rect height="5.538461538461538" width="5"><title>giant forest scorpions
1</title></rect><text x="11" y="2.769230769230769" dy=".35em" text-anchor="start" style="font-size: 11px; font-family: Arial, Helvetica; pointer-events: none;">giant forest scorpions</text></g><g class="node" transform="translate(0,403.9999999999999)"><rect height="5.538461538461538" width="5"><title>Giant Panda
1</title></rect><text x="11" y="2.769230769230769" dy=".35em" text-anchor="start" style="font-size: 11px; font-family: Arial, Helvetica; pointer-events: none;">Giant Panda</text></g><g class="node" transform="translate(0,419.53846153846143)"><rect height="5.538461538461538" width="5"><title>Giraffe
1</title></rect><text x="11" y="2.769230769230769" dy=".35em" text-anchor="start" style="font-size: 11px; font-family: Arial, Helvetica; pointer-events: none;">Giraffe</text></g><g class="node" transform="translate(0,435.076923076923)"><rect height="5.538461538461538" width="5"><title>Goat
1</title></rect><text x="11" y="2.769230769230769" dy=".35em" text-anchor="start" style="font-size: 11px; font-family: Arial, Helvetica; pointer-events: none;">Goat</text></g><g class="node" transform="translate(0,450.6153846153845)"><rect height="5.538461538461538" width="5"><title>Golden Stag Beetle
1</title></rect><text x="11" y="2.769230769230769" dy=".35em" text-anchor="start" style="font-size: 11px; font-family: Arial, Helvetica; pointer-events: none;">Golden Stag Beetle</text></g><g class="node" transform="translate(0,466.1538461538461)"><rect height="5.538461538461538" width="5"><title>Great White Pelican
1</title></rect><text x="11" y="2.769230769230769" dy=".35em" text-anchor="start" style="font-size: 11px; font-family: Arial, Helvetica; pointer-events: none;">Great White Pelican</text></g><g class="node" transform="translate(0,481.6923076923076)"><rect height="5.538461538461538" width="5"><title>Guinea pig
1</title></rect><text x="11" y="2.769230769230769" dy=".35em" text-anchor="start" style="font-size: 11px; font-family: Arial, Helvetica; pointer-events: none;">Guinea pig</text></g><g class="node" transform="translate(0,-2.2737367544323206e-13)"><rect height="5.538461538461538" width="5"><title>Hairy Hermit Crab
1</title></rect><text x="11" y="2.769230769230769" dy=".35em" text-anchor="start" style="font-size: 11px; font-family: Arial, Helvetica; pointer-events: none;">Hairy Hermit Crab</text></g><g class="node" transform="translate(0,512.7692307692307)"><rect height="5.538461538461538" width="5"><title>Harbor seal
1</title></rect><text x="11" y="2.769230769230769" dy=".35em" text-anchor="start" style="font-size: 11px; font-family: Arial, Helvetica; pointer-events: none;">Harbor seal</text></g><g class="node" transform="translate(0,528.3076923076923)"><rect height="5.538461538461538" width="5"><title>Hedgehog
1</title></rect><text x="11" y="2.769230769230769" dy=".35em" text-anchor="start" style="font-size: 11px; font-family: Arial, Helvetica; pointer-events: none;">Hedgehog</text></g><g class="node" transform="translate(0,543.8461538461538)"><rect height="5.538461538461538" width="5"><title>House Sparrow
1</title></rect><text x="11" y="2.769230769230769" dy=".35em" text-anchor="start" style="font-size: 11px; font-family: Arial, Helvetica; pointer-events: none;">House Sparrow</text></g><g class="node" transform="translate(0,559.3846153846154)"><rect height="5.538461538461538" width="5"><title>Killer whale
1</title></rect><text x="11" y="2.769230769230769" dy=".35em" text-anchor="start" style="font-size: 11px; font-family: Arial, Helvetica; pointer-events: none;">Killer whale</text></g><g class="node" transform="translate(0,574.9230769230769)"><rect height="5.538461538461538" width="5"><title>Koala
1</title></rect><text x="11" y="2.769230769230769" dy=".35em" text-anchor="start" style="font-size: 11px; font-family: Arial, Helvetica; pointer-events: none;">Koala</text></g><g class="node" transform="translate(0,590.4615384615385)"><rect height="5.538461538461538" width="5"><title>Leopard
1</title></rect><text x="11" y="2.769230769230769" dy=".35em" text-anchor="start" style="font-size: 11px; font-family: Arial, Helvetica; pointer-events: none;">Leopard</text></g><g class="node" transform="translate(0,606)"><rect height="5.538461538461538" width="5"><title>Lion
1</title></rect><text x="11" y="2.769230769230769" dy=".35em" text-anchor="start" style="font-size: 11px; font-family: Arial, Helvetica; pointer-events: none;">Lion</text></g><g class="node" transform="translate(0,621.5384615384615)"><rect height="5.538461538461538" width="5"><title>Little Owl
1</title></rect><text x="11" y="2.769230769230769" dy=".35em" text-anchor="start" style="font-size: 11px; font-family: Arial, Helvetica; pointer-events: none;">Little Owl</text></g><g class="node" transform="translate(0,637.0769230769231)"><rect height="5.538461538461538" width="5"><title>Llama
1</title></rect><text x="11" y="2.769230769230769" dy=".35em" text-anchor="start" style="font-size: 11px; font-family: Arial, Helvetica; pointer-events: none;">Llama</text></g><g class="node" transform="translate(0,652.6153846153846)"><rect height="5.538461538461538" width="5"><title>Lophius piscatorius
1</title></rect><text x="11" y="2.769230769230769" dy=".35em" text-anchor="start" style="font-size: 11px; font-family: Arial, Helvetica; pointer-events: none;">Lophius piscatorius</text></g><g class="node" transform="translate(0,668.1538461538462)"><rect height="5.538461538461538" width="5"><title>Mediterranean mussel
1</title></rect><text x="11" y="2.769230769230769" dy=".35em" text-anchor="start" style="font-size: 11px; font-family: Arial, Helvetica; pointer-events: none;">Mediterranean mussel</text></g><g class="node" transform="translate(0,683.6923076923077)"><rect height="5.538461538461538" width="5"><title>Mink
1</title></rect><text x="11" y="2.769230769230769" dy=".35em" text-anchor="start" style="font-size: 11px; font-family: Arial, Helvetica; pointer-events: none;">Mink</text></g><g class="node" transform="translate(0,699.2307692307693)"><rect height="5.538461538461538" width="5"><title>Narwhal
1</title></rect><text x="11" y="2.769230769230769" dy=".35em" text-anchor="start" style="font-size: 11px; font-family: Arial, Helvetica; pointer-events: none;">Narwhal</text></g><g class="node" transform="translate(0,714.7692307692308)"><rect height="5.538461538461538" width="5"><title>Nine-banded armadillo
1</title></rect><text x="11" y="2.769230769230769" dy=".35em" text-anchor="start" style="font-size: 11px; font-family: Arial, Helvetica; pointer-events: none;">Nine-banded armadillo</text></g><g class="node" transform="translate(0,730.3076923076924)"><rect height="5.538461538461538" width="5"><title>Ostrich
1</title></rect><text x="11" y="2.769230769230769" dy=".35em" text-anchor="start" style="font-size: 11px; font-family: Arial, Helvetica; pointer-events: none;">Ostrich</text></g><g class="node" transform="translate(0,745.8461538461539)"><rect height="5.538461538461538" width="5"><title>Pacific Gull
1</title></rect><text x="11" y="2.769230769230769" dy=".35em" text-anchor="start" style="font-size: 11px; font-family: Arial, Helvetica; pointer-events: none;">Pacific Gull</text></g><g class="node" transform="translate(0,761.3846153846155)"><rect height="5.538461538461538" width="5"><title>Penguin
1</title></rect><text x="11" y="2.769230769230769" dy=".35em" text-anchor="start" style="font-size: 11px; font-family: Arial, Helvetica; pointer-events: none;">Penguin</text></g><g class="node" transform="translate(0,776.923076923077)"><rect height="5.538461538461538" width="5"><title>Platypus
1</title></rect><text x="11" y="2.769230769230769" dy=".35em" text-anchor="start" style="font-size: 11px; font-family: Arial, Helvetica; pointer-events: none;">Platypus</text></g><g class="node" transform="translate(0,792.4615384615386)"><rect height="5.538461538461538" width="5"><title>Pterodactylus
1</title></rect><text x="11" y="2.769230769230769" dy=".35em" text-anchor="start" style="font-size: 11px; font-family: Arial, Helvetica; pointer-events: none;">Pterodactylus</text></g><g class="node" transform="translate(0,808.0000000000001)"><rect height="5.538461538461538" width="5"><title>Reindeer
1</title></rect><text x="11" y="2.769230769230769" dy=".35em" text-anchor="start" style="font-size: 11px; font-family: Arial, Helvetica; pointer-events: none;">Reindeer</text></g><g class="node" transform="translate(0,823.5384615384617)"><rect height="5.538461538461538" width="5"><title>Ringlet Butterfly
1</title></rect><text x="11" y="2.769230769230769" dy=".35em" text-anchor="start" style="font-size: 11px; font-family: Arial, Helvetica; pointer-events: none;">Ringlet Butterfly</text></g><g class="node" transform="translate(0,839.0769230769232)"><rect height="5.538461538461538" width="5"><title>Roborovski hamster
1</title></rect><text x="11" y="2.769230769230769" dy=".35em" text-anchor="start" style="font-size: 11px; font-family: Arial, Helvetica; pointer-events: none;">Roborovski hamster</text></g><g class="node" transform="translate(0,854.6153846153848)"><rect height="5.538461538461538" width="5"><title>russet mite
1</title></rect><text x="11" y="2.769230769230769" dy=".35em" text-anchor="start" style="font-size: 11px; font-family: Arial, Helvetica; pointer-events: none;">russet mite</text></g><g class="node" transform="translate(0,870.1538461538463)"><rect height="5.538461538461538" width="5"><title>Scorpionfish
1</title></rect><text x="11" y="2.769230769230769" dy=".35em" text-anchor="start" style="font-size: 11px; font-family: Arial, Helvetica; pointer-events: none;">Scorpionfish</text></g><g class="node" transform="translate(0,885.6923076923078)"><rect height="5.538461538461538" width="5"><title>Spotted Hyena
1</title></rect><text x="11" y="2.769230769230769" dy=".35em" text-anchor="start" style="font-size: 11px; font-family: Arial, Helvetica; pointer-events: none;">Spotted Hyena</text></g><g class="node" transform="translate(0,901.2307692307694)"><rect height="5.538461538461538" width="5"><title>Tarantula
1</title></rect><text x="11" y="2.769230769230769" dy=".35em" text-anchor="start" style="font-size: 11px; font-family: Arial, Helvetica; pointer-events: none;">Tarantula</text></g><g class="node" transform="translate(0,916.769230769231)"><rect height="5.538461538461538" width="5"><title>Tiger
1</title></rect><text x="11" y="2.769230769230769" dy=".35em" text-anchor="start" style="font-size: 11px; font-family: Arial, Helvetica; pointer-events: none;">Tiger</text></g><g class="node" transform="translate(0,932.3076923076925)"><rect height="5.538461538461538" width="5"><title>Tortoise
1</title></rect><text x="11" y="2.769230769230769" dy=".35em" text-anchor="start" style="font-size: 11px; font-family: Arial, Helvetica; pointer-events: none;">Tortoise</text></g><g class="node" transform="translate(0,947.846153846154)"><rect height="5.538461538461538" width="5"><title>Walrus
1</title></rect><text x="11" y="2.769230769230769" dy=".35em" text-anchor="start" style="font-size: 11px; font-family: Arial, Helvetica; pointer-events: none;">Walrus</text></g><g class="node" transform="translate(0,963.3846153846156)"><rect height="5.538461538461538" width="5"><title>Weaver ant
1</title></rect><text x="11" y="2.769230769230769" dy=".35em" text-anchor="start" style="font-size: 11px; font-family: Arial, Helvetica; pointer-events: none;">Weaver ant</text></g><g class="node" transform="translate(0,978.9230769230771)"><rect height="5.538461538461538" width="5"><title>Woolly mammoth
1</title></rect><text x="11" y="2.769230769230769" dy=".35em" text-anchor="start" style="font-size: 11px; font-family: Arial, Helvetica; pointer-events: none;">Woolly mammoth</text></g><g class="node" transform="translate(0,994.4615384615387)"><rect height="5.538461538461538" width="5"><title>Zebra
1</title></rect><text x="11" y="2.769230769230769" dy=".35em" text-anchor="start" style="font-size: 11px; font-family: Arial, Helvetica; pointer-events: none;">Zebra</text></g><g class="node" transform="translate(612,619.0769230769231)"><rect height="55.38461538461539" width="5" style="fill: rgb(102, 102, 102);"><title>Arthropoda
10</title></rect><text x="-6" y="27.692307692307693" dy=".35em" text-anchor="end" style="font-size: 11px; font-family: Arial, Helvetica; pointer-events: none;">Arthropoda</text></g><g class="node" transform="translate(612,310)"><rect height="299.0769230769231" width="5" style="fill: rgb(102, 102, 102);"><title>Chordata
54</title></rect><text x="-6" y="149.53846153846155" dy=".35em" text-anchor="end" style="font-size: 11px; font-family: Arial, Helvetica; pointer-events: none;">Chordata</text></g><g class="node" transform="translate(612,684.4615384615385)"><rect height="5.538461538461538" width="5" style="fill: rgb(102, 102, 102);"><title>Mollusca
1</title></rect><text x="-6" y="2.769230769230769" dy=".35em" text-anchor="end" style="font-size: 11px; font-family: Arial, Helvetica; pointer-events: none;">Mollusca</text></g></g></g></svg>